<svg preserveAspectRatio="none" width="100%" height="100%" overflow="visible" style="display: block;" viewBox="0 0 16 18" fill="none" xmlns="http://www.w3.org/2000/svg">
<g id="Union">
<path d="M9 1C9 0.447715 8.55229 0 8 0C7.44772 0 7 0.447715 7 1C3.33114 1.3927 2.65279 4.03586 2.1079 6.11821C1.91732 6.84651 1.74307 7.51242 1.46291 8.00002C1.29239 8.2968 1.09424 8.54954 0.899864 8.79745C0.439303 9.38488 0 9.94519 0 11C-1.53064e-05 13 2.99107 15 8 15C13.0089 15 16 13 16 11C16 9.9496 15.5524 9.38957 15.085 8.80482C14.885 8.55454 14.6813 8.29974 14.5076 8.00002C14.2223 7.50773 14.0479 6.83368 13.8573 6.09717C13.3196 4.01851 12.6531 1.39152 9 1Z" fill="var(--fill-0, #001A34)" fill-opacity="0.2"/>
<path d="M5.30324 16C4.94643 15.9786 4.93152 16.4088 5.13668 16.701C5.68323 17.4796 6.87118 18 7.99996 18C9.14356 18 10.3291 17.4662 10.8711 16.6705C11.0716 16.376 11.0524 15.975 10.6965 16.0003C10.6965 16.0003 9.51338 16.1875 7.99996 16.1875C6.50306 16.1875 5.30324 16 5.30324 16Z" fill="var(--fill-0, #001A34)" fill-opacity="0.2"/>
</g>
</svg>
