<svg preserveAspectRatio="none" width="100%" height="100%" overflow="visible" style="display: block;" viewBox="0 0 129.001 20" fill="none" xmlns="http://www.w3.org/2000/svg">
<g id="Logo">
<path id="Union" d="M4.3623 6.25098C6.8807 6.25098 8.72559 7.95046 8.72559 10.4131C8.72557 12.8757 6.87958 14.5752 4.3623 14.5752C1.84405 14.5751 1.10346e-05 12.8756 0 10.4131C0 7.95055 1.84515 6.25109 4.3623 6.25098ZM21.3652 6.25098C23.8823 6.25118 25.7275 7.95061 25.7275 10.4131C25.7275 12.8756 23.8823 14.575 21.3652 14.5752C18.848 14.5752 17.002 12.8757 17.002 10.4131C17.002 7.95046 18.8479 6.25098 21.3652 6.25098ZM46.8037 4.99512L43.6377 5.29102C41.594 5.48819 40.9943 6.22608 40.9199 7.9502H40.9707C41.4942 7.01488 42.4909 6.42383 43.7871 6.42383C45.8807 6.4239 47.6005 7.95043 47.6006 10.3877C47.6006 12.8261 45.7067 14.5751 43.2383 14.5752C40.7454 14.5752 38.8252 12.8262 38.8252 9.55078C38.8252 5.85693 39.8482 3.54109 43.2881 3.27051L46.8037 3V4.99512ZM52.3125 6.25C53.5833 6.25001 54.5814 6.84224 54.9551 7.62988H55.0049V6.49707H57.124V14.3037H55.0049V13.2451H54.9551C54.5314 13.9834 53.6087 14.5752 52.3125 14.5752C50.1933 14.5752 48.5478 13.0727 48.5478 10.3877C48.5479 7.728 50.2433 6.25 52.3125 6.25ZM124.838 6.25C127.137 6.25 129.001 8.1134 129.001 10.4121C129.001 12.7109 127.137 14.5752 124.838 14.5752H84.417C82.1183 14.575 80.255 12.7108 80.2549 10.4121C80.2551 8.11354 82.1184 6.25023 84.417 6.25H124.838ZM16.2793 6.49707V8.14648L12.0166 12.5303H16.4785V14.3037H9.39844V12.6289L13.6611 8.27051H9.49805V6.49707H16.2793ZM31.6123 6.25C33.3312 6.2511 34.6035 7.18722 34.6035 9.50195V14.3037H32.4844V9.94531C32.4844 8.69003 31.8854 8.17198 30.8643 8.17187C29.792 8.17187 29.0187 8.76208 29.0186 10.4619V14.3037H26.8994V6.49707H28.9941V7.67871H29.0439C29.5673 6.79252 30.4657 6.25006 31.6123 6.25ZM61.0371 9.32812H64.4287V6.49707H66.5478V14.3037H64.4287V11.1514H61.0371V14.3037H58.918V6.49707H61.0371V9.32812ZM70.4629 9.72266L73.1055 6.49707H75.7236L72.4814 10.043L76.0215 14.3027H73.3291V14.3037L70.4629 10.5605V14.3037H68.3437V6.49707H70.4629V9.72266ZM84.7334 10.5264C84.7333 10.9538 84.6515 11.2495 84.4746 11.5518H84.0322V13.1885H84.8066V12.3262H87.2109V13.1885H87.9853V11.5518H87.5283V8.82227H84.7334V10.5264ZM43.2129 8.2207C41.9908 8.2207 41.043 9.03388 41.043 10.4131C41.043 11.7671 41.992 12.6787 43.2129 12.6787C44.4348 12.6785 45.3818 11.7669 45.3818 10.4131C45.3818 9.03402 44.4348 8.22087 43.2129 8.2207ZM52.8613 8.14648C51.5905 8.14652 50.7676 9.10762 50.7676 10.4375C50.7677 11.7431 51.5895 12.6787 52.8613 12.6787C54.1321 12.6787 55.0048 11.7178 55.0049 10.4121C55.0049 9.0822 54.1322 8.14648 52.8613 8.14648ZM4.3623 8.17187C3.0661 8.17199 2.21875 9.05808 2.21875 10.4131C2.21876 11.767 3.06611 12.6542 4.3623 12.6543C5.65865 12.6543 6.50585 11.7682 6.50586 10.4131C6.50586 9.05799 5.65865 8.17187 4.3623 8.17187ZM21.3652 8.17187C20.0689 8.17187 19.2217 9.05799 19.2217 10.4131C19.2217 11.7671 20.0689 12.6543 21.3652 12.6543C22.6613 12.6541 23.5088 11.768 23.5088 10.4131C23.5088 9.05814 22.6613 8.17208 21.3652 8.17187ZM108.11 8.71289C107.542 8.71291 107.048 8.83815 106.701 8.94141L106.944 9.66406C107.269 9.56082 107.675 9.45706 108.029 9.45703C108.405 9.45708 108.611 9.56831 108.611 9.78906C108.611 10.0175 108.427 10.1288 108.096 10.1289H107.424V10.8076H108.117C108.493 10.8076 108.737 10.9107 108.737 11.2051C108.737 11.4778 108.486 11.5888 108.044 11.5889C107.616 11.5888 107.203 11.4638 106.9 11.3311L106.598 12.0459C106.988 12.2376 107.52 12.3417 108.051 12.3418C109.142 12.3418 109.637 11.9498 109.637 11.2861C109.636 10.7704 109.297 10.4754 108.781 10.4238V10.4014C109.268 10.3276 109.541 10.0402 109.541 9.62012C109.541 8.99351 109.017 8.71293 108.11 8.71289ZM115.961 8.71289C114.892 8.71314 114.192 9.45042 114.191 10.5342C114.191 11.6181 114.914 12.3416 116.027 12.3418C116.743 12.3418 117.201 12.0097 117.503 11.7295L117.046 11.0723C116.854 11.264 116.514 11.5371 116.027 11.5371C115.504 11.5369 115.121 11.2343 115.069 10.7109H117.613V10.5342C117.613 9.36914 116.993 8.71289 115.961 8.71289ZM119.898 8.71289C118.8 8.71305 118.018 9.43608 118.018 10.5273C118.018 11.6185 118.8 12.3416 119.898 12.3418C120.363 12.3418 120.74 12.2232 121.094 12.002L120.702 11.2568C120.481 11.3969 120.223 11.4932 119.913 11.4932C119.353 11.493 118.948 11.1022 118.947 10.5273C118.947 9.95242 119.353 9.56076 119.913 9.56055C120.223 9.56055 120.481 9.65692 120.702 9.79687L121.094 9.05176C120.74 8.8306 120.363 8.71289 119.898 8.71289ZM122.868 8.71289C121.976 8.71297 121.231 9.36231 121.23 10.5273C121.231 11.6923 121.976 12.3417 122.868 12.3418C123.421 12.3418 123.79 12.1049 124.004 11.751H124.019V12.2305H124.919V8.82324H124.019V9.30273H124.004C123.79 8.9489 123.421 8.71289 122.868 8.71289ZM100.97 7.03711C100.962 7.18451 100.837 7.28033 100.623 7.34668C100.269 7.44993 99.5832 7.59811 99.207 7.81934C98.5435 8.22498 98.2921 9.13199 98.292 10.0537C98.2921 11.7425 99.1852 12.3398 100.232 12.3398C101.412 12.3397 102.128 11.5874 102.128 10.5107C102.128 9.45661 101.457 8.77073 100.483 8.77051C99.8566 8.77055 99.3396 9.05873 99.1035 9.63379H99.081C99.1401 9.08833 99.288 8.65975 99.6934 8.43848C100.062 8.24674 100.845 8.12147 101.221 7.99609C101.678 7.84858 101.877 7.56061 101.877 7.03711H100.97ZM88.7285 11.0498C88.7285 11.3225 88.6331 11.4257 88.4268 11.4258H88.1904V12.2598H88.5664C89.2006 12.2598 89.6287 11.9053 89.6289 11.1533V9.65625H90.8457V12.2295H91.7529V8.82227H88.7285V11.0498ZM93.6719 8.82227C92.9199 8.82241 92.4475 9.27294 92.4473 9.95117C92.4475 10.467 92.7502 10.895 93.2881 11.0205L92.293 12.2295H93.4062L94.3281 11.0645H94.6826V12.2295H95.5898V8.82227H93.6719ZM102.757 12.2295H103.567L105.146 10.165H105.161V12.2295H106.068V8.82227H105.249L103.671 10.8877H103.656V8.82227H102.757V12.2295ZM110.264 12.2295H111.163V10.873H112.66V12.2295H113.567V8.82227H112.66V10.0469H111.163V8.82227H110.264V12.2295ZM86.6289 11.5518H85.4043C85.5517 11.2642 85.6328 10.9679 85.6328 10.5625V9.62598H86.6289V11.5518ZM123.097 9.56836C123.642 9.56836 124.018 9.95227 124.019 10.5273C124.018 11.1023 123.642 11.4854 123.097 11.4854C122.551 11.4852 122.175 11.1022 122.175 10.5273C122.175 9.95237 122.551 9.5685 123.097 9.56836ZM100.225 9.56738C100.755 9.56738 101.183 9.92846 101.184 10.5254C101.184 11.1227 100.756 11.4844 100.225 11.4844C99.7011 11.4842 99.2735 11.1226 99.2734 10.5254C99.2738 9.92857 99.7013 9.56752 100.225 9.56738ZM94.6826 10.3711H93.9453C93.6062 10.3711 93.4434 10.2159 93.4434 9.97266C93.4436 9.72233 93.6064 9.57426 93.9453 9.57422H94.6826V10.3711ZM115.917 9.44238C116.359 9.44238 116.67 9.694 116.699 10.1289H115.091C115.165 9.65721 115.482 9.44246 115.917 9.44238Z" fill="var(--fill-0, white)"/>
</g>
</svg>
