<svg preserveAspectRatio="none" width="100%" height="100%" overflow="visible" style="display: block;" viewBox="0 0 12 9.33398" fill="none" xmlns="http://www.w3.org/2000/svg">
<path id="Union" d="M6.33301 0C8.72624 0 10.667 1.94075 10.667 4.33398C10.667 4.70372 10.6204 5.06265 10.5332 5.40527C11.379 5.63861 12 6.41404 12 7.33398C11.9998 8.4384 11.1045 9.33398 10 9.33398H2.66699C1.65466 9.33398 0.773915 8.76948 0.322266 7.93848C0.117006 7.56063 6.03988e-08 7.12723 0 6.66699C0 5.42192 0.85315 4.37563 2.00684 4.08203C2.21776 4.02837 2.43937 4 2.66699 4C3.15259 4.00006 3.60786 4.13058 4 4.35742C4.08998 4.40948 4.16658 4.46199 4.23438 4.50879C4.45476 4.66092 4.58385 4.75008 4.78809 4.5459C4.89333 4.44066 4.97698 4.2329 4.66699 4C4.10994 3.58152 3.41735 3.33406 2.66699 3.33398C2.33369 3.33398 2.16335 3.07018 2.33301 2.66406C2.98671 1.09975 4.53164 0.000132485 6.33301 0Z" fill="var(--fill-0, white)"/>
</svg>
