<svg width="24" height="24" viewBox="0 0 24 24" fill="none" xmlns="http://www.w3.org/2000/svg">
<path d="M4 7.55556C4 4.62756 4.62756 4 7.55556 4C10.4836 4 11.1111 4.62756 11.1111 7.55556C11.1111 10.4836 10.4836 11.1111 7.55556 11.1111C4.62756 11.1111 4 10.4836 4 7.55556Z" fill="#001A34" fill-opacity="1"/>
<path d="M4 16.4444C4 13.5164 4.62756 12.8889 7.55556 12.8889C10.4836 12.8889 11.1111 13.5164 11.1111 16.4444C11.1111 19.3724 10.4836 20 7.55556 20C4.62756 20 4 19.3724 4 16.4444Z" fill="#001A34" fill-opacity="1"/>
<path d="M16.4444 4C13.5164 4 12.8889 4.62756 12.8889 7.55556C12.8889 10.4836 13.5164 11.1111 16.4444 11.1111C19.3724 11.1111 20 10.4836 20 7.55556C20 4.62756 19.3724 4 16.4444 4Z" fill="#001A34" fill-opacity="1"/>
<path d="M12.8889 16.4444C12.8889 13.5164 13.5164 12.8889 16.4444 12.8889C19.3724 12.8889 20 13.5164 20 16.4444C20 19.3724 19.3724 20 16.4444 20C13.5164 20 12.8889 19.3724 12.8889 16.4444Z" fill="#001A34" fill-opacity="1"/>
</svg>
