<svg preserveAspectRatio="none" width="100%" height="100%" overflow="visible" style="display: block;" viewBox="0 0 16 16" fill="none" xmlns="http://www.w3.org/2000/svg">
<g id="Union">
<path d="M0 3.55556C0 0.627556 0.627556 0 3.55556 0C6.48356 0 7.11111 0.627556 7.11111 3.55556C7.11111 6.48356 6.48356 7.11111 3.55556 7.11111C0.627556 7.11111 0 6.48356 0 3.55556Z" fill="var(--fill-0, #001A34)" fill-opacity="0.4"/>
<path d="M0 12.4444C0 9.51644 0.627556 8.88889 3.55556 8.88889C6.48356 8.88889 7.11111 9.51644 7.11111 12.4444C7.11111 15.3724 6.48356 16 3.55556 16C0.627556 16 0 15.3724 0 12.4444Z" fill="var(--fill-0, #001A34)" fill-opacity="0.4"/>
<path d="M12.4444 0C9.51644 0 8.88889 0.627556 8.88889 3.55556C8.88889 6.48356 9.51644 7.11111 12.4444 7.11111C15.3724 7.11111 16 6.48356 16 3.55556C16 0.627556 15.3724 0 12.4444 0Z" fill="var(--fill-0, #001A34)" fill-opacity="0.4"/>
<path d="M8.88889 12.4444C8.88889 9.51644 9.51644 8.88889 12.4444 8.88889C15.3724 8.88889 16 9.51644 16 12.4444C16 15.3724 15.3724 16 12.4444 16C9.51644 16 8.88889 15.3724 8.88889 12.4444Z" fill="var(--fill-0, #001A34)" fill-opacity="0.4"/>
</g>
</svg>
