<svg width="100%" height="100%" overflow="visible" style="display: block;" viewBox="0 0 18 18" fill="none" xmlns="http://www.w3.org/2000/svg">
<path id="Union" d="M9 18C14.5842 18 18 14.5842 18 9C18 3.4158 14.5842 0 9 0C3.4158 0 0 3.4158 0 9C0 14.5842 3.4158 18 9 18ZM13.7071 7.70711L8.70711 12.7071C8.31658 13.0976 7.68342 13.0976 7.29289 12.7071L4.29289 9.70711C3.90237 9.31658 3.90237 8.68342 4.29289 8.29289C4.68342 7.90237 5.31658 7.90237 5.70711 8.29289L8 10.5858L12.2929 6.29289C12.6834 5.90237 13.3166 5.90237 13.7071 6.29289C14.0976 6.68342 14.0976 7.31658 13.7071 7.70711Z" fill="var(--fill-0, black)"/>
</svg>
