<svg preserveAspectRatio="none" width="100%" height="100%" overflow="visible" style="display: block;" viewBox="0 0 18 18" fill="none" xmlns="http://www.w3.org/2000/svg">
<path id="Union" d="M9 18C14.5842 18 18 14.5842 18 9C18 3.4158 14.5842 0 9 0C3.4158 0 0 3.4158 0 9C0 14.5842 3.4158 18 9 18ZM10 6V8H12C12.5523 8 13 8.44772 13 9C13 9.55228 12.5523 10 12 10H10V12C10 12.5523 9.55228 13 9 13C8.44772 13 8 12.5523 8 12V10H6C5.44771 10 5 9.55228 5 9C5 8.44772 5.44771 8 6 8H8V6C8 5.44771 8.44772 5 9 5C9.55228 5 10 5.44771 10 6Z" fill="var(--fill-0, #005BFF)"/>
</svg>
