<svg preserveAspectRatio="none" width="100%" height="100%" overflow="visible" style="display: block;" viewBox="0 0 24 24" fill="none" xmlns="http://www.w3.org/2000/svg">
<g id="&#208;&#154;&#209;&#128;&#208;&#181;&#209;&#129;&#209;&#130;&#208;&#184;&#208;&#186;">
<path id="Union" d="M15.6999 6.53288C16.1881 6.04488 16.9794 6.04478 17.4675 6.53288C17.9555 7.02099 17.9555 7.81234 17.4675 8.30046L13.7683 11.9997L17.4675 15.6999C17.9553 16.1881 17.9556 16.9794 17.4675 17.4674C16.9795 17.9555 16.1881 17.9553 15.6999 17.4674L11.9997 13.7682L8.30053 17.4674C7.81241 17.9554 7.02106 17.9554 6.53295 17.4674C6.04485 16.9793 6.04495 16.188 6.53295 15.6999L10.2322 11.9997L6.53295 8.30046C6.04479 7.8123 6.04479 7.02103 6.53295 6.53288C7.0211 6.04472 7.81237 6.04472 8.30053 6.53288L11.9997 10.2321L15.6999 6.53288Z" fill="var(--fill-0, #001A34)" fill-opacity="0.4"/>
</g>
</svg>
