<svg width="24" height="24" viewBox="0 0 24 24" fill="none" xmlns="http://www.w3.org/2000/svg">
<path d="M15.6999 6.53279C16.188 6.0448 16.9793 6.04469 17.4674 6.53279C17.9554 7.0209 17.9554 7.81225 17.4674 8.30037L13.7682 11.9996L17.4674 15.6998C17.9553 16.188 17.9555 16.9793 17.4674 17.4674C16.9794 17.9554 16.188 17.9552 15.6999 17.4674L11.9997 13.7681L8.30044 17.4674C7.81233 17.9553 7.02098 17.9553 6.53286 17.4674C6.04476 16.9793 6.04487 16.1879 6.53286 15.6998L10.2321 11.9996L6.53286 8.30037C6.04471 7.81221 6.04471 7.02094 6.53286 6.53279C7.02102 6.04463 7.81229 6.04463 8.30044 6.53279L11.9997 10.232L15.6999 6.53279Z" fill="#001A34" fill-opacity="1"/>
</svg>
