<svg width="24" height="24" viewBox="0 0 24 24" fill="none" xmlns="http://www.w3.org/2000/svg">
<path d="M4 12.0063C4 7.32539 4 5.07735 5.12315 3.99769C6.16098 3.00004 8.15971 3.00003 12.0017 3C12.5023 3 13.5006 3 14 3.09991C15.0142 3.3028 15.5 3.5 17.5 5.5C19.5 7.5 19.7028 8.01415 19.9 9C20 9.5 20.0028 11.7514 19.9972 12.2514C19.9972 13.087 19.9972 13.5233 19.7793 13.7511C19.5412 14 19.0428 14 18 14C15.2386 14 13 16.2386 13 19C13 20.5 13 20.9995 11.1322 20.9995C7.87203 20.9939 6.07333 20.9219 5.12139 20.0081C4 18.9317 4 16.6871 4 12.0063ZM8 10C8 10.5523 8.44771 11 9 11H15C15.5523 11 16 10.5523 16 10C16 9.44771 15.5523 9 15 9H9C8.44771 9 8 9.44771 8 10ZM9 13C8.44771 13 8 13.4477 8 14C8 14.5523 8.44771 15 9 15H12C12.5523 15 13 14.5523 13 14C13 13.4477 12.5523 13 12 13H9Z" fill="#005BFF"/>
<path d="M18 16C18.5523 16 19 16.4477 19 17V18H20C20.5523 18 21 18.4477 21 19C21 19.5523 20.5523 20 20 20H19V21C19 21.5523 18.5523 22 18 22C17.4477 22 17 21.5523 17 21V20H16C15.4477 20 15 19.5523 15 19C15 18.4477 15.4477 18 16 18H17V17C17 16.4477 17.4477 16 18 16Z" fill="#005BFF"/>
</svg>
