<svg preserveAspectRatio="none" width="100%" height="100%" overflow="visible" style="display: block;" viewBox="0 0 17 19" fill="none" xmlns="http://www.w3.org/2000/svg">
<g id="Union">
<path d="M0 9.00627C0 4.32539 0 2.07735 1.12315 0.997694C2.16098 4.26769e-05 4.15971 2.81341e-05 8.00173 0C8.5023 0 9.50058 0 10 0.0999131C11.0142 0.302804 11.5 0.5 13.5 2.5C15.5 4.5 15.7028 5.01415 15.9 6C16 6.5 16.0028 8.75137 15.9972 9.25137C15.9972 10.087 15.9972 10.5233 15.7793 10.7511C15.5412 11 15.0428 11 14 11C11.2386 11 9 13.2386 9 16C9 17.5 9 17.9995 7.13225 17.9995C3.87203 17.9939 2.07333 17.9219 1.12139 17.0081C0 15.9317 0 13.6871 0 9.00627ZM4 7C4 7.55229 4.44771 8 5 8H11C11.5523 8 12 7.55229 12 7C12 6.44771 11.5523 6 11 6H5C4.44771 6 4 6.44771 4 7ZM5 10C4.44771 10 4 10.4477 4 11C4 11.5523 4.44771 12 5 12H8C8.55228 12 9 11.5523 9 11C9 10.4477 8.55228 10 8 10H5Z" fill="var(--fill-0, #005BFF)"/>
<path d="M14 13C14.5523 13 15 13.4477 15 14V15H16C16.5523 15 17 15.4477 17 16C17 16.5523 16.5523 17 16 17H15V18C15 18.5523 14.5523 19 14 19C13.4477 19 13 18.5523 13 18V17H12C11.4477 17 11 16.5523 11 16C11 15.4477 11.4477 15 12 15H13V14C13 13.4477 13.4477 13 14 13Z" fill="var(--fill-0, #005BFF)"/>
</g>
</svg>
