<svg width="24" height="24" viewBox="0 0 24 24" fill="none" xmlns="http://www.w3.org/2000/svg">
<path d="M4 12.0063C4 7.32539 4 5.07735 5.12315 3.99769C6.16098 3.00004 8.15971 3.00003 12.0017 3C12.5023 3 13.5006 3 14 3.09991C15.0142 3.3028 15.5 3.5 17.5 5.5C19.5 7.5 19.7028 8.01415 19.9 9C20 9.5 20.0028 11.7514 19.9972 12.2514C19.9473 16.7726 19.9232 18.9573 18.8194 20.0129C17.7873 20.9999 15.8235 21 12 21C8.18547 21 6.15464 20.9999 5.12139 20.0081C4 18.9317 4 16.6871 4 12.0063ZM8 10C8 10.5523 8.44771 11 9 11H15C15.5523 11 16 10.5523 16 10C16 9.44771 15.5523 9 15 9H9C8.44771 9 8 9.44771 8 10ZM9 13C8.44771 13 8 13.4477 8 14C8 14.5523 8.44771 15 9 15H13C13.5523 15 14 14.5523 14 14C14 13.4477 13.5523 13 13 13H9Z" fill="#005BFF"/>
</svg>
