<svg preserveAspectRatio="none" width="100%" height="100%" overflow="visible" style="display: block;" viewBox="0 0 15.9989 18" fill="none" xmlns="http://www.w3.org/2000/svg">
<path id="Union" d="M0 9.00627C0 4.32539 0 2.07735 1.12315 0.997694C2.16098 4.26769e-05 4.15971 2.81341e-05 8.00173 7.36598e-10C8.5023 -2.37682e-07 9.50058 -4.76837e-07 10 0.0999131C11.0142 0.302804 11.5 0.5 13.5 2.5C15.5 4.5 15.7028 5.01415 15.9 6C16 6.5 16.0028 8.75137 15.9972 9.25137C15.9473 13.7726 15.9232 15.9573 14.8194 17.0129C13.7873 17.9999 11.8235 18 8 18C4.18547 18 2.15464 17.9999 1.12139 17.0081C0 15.9317 0 13.6871 0 9.00627ZM4 7C4 7.55229 4.44771 8 5 8H11C11.5523 8 12 7.55229 12 7C12 6.44771 11.5523 6 11 6H5C4.44771 6 4 6.44771 4 7ZM5 10C4.44771 10 4 10.4477 4 11C4 11.5523 4.44771 12 5 12H9C9.55228 12 10 11.5523 10 11C10 10.4477 9.55228 10 9 10H5Z" fill="var(--fill-0, #005BFF)"/>
</svg>
