<svg width="100%" height="100%" overflow="visible" style="display: block;" viewBox="0 0 36 32" fill="none" xmlns="http://www.w3.org/2000/svg">
<g id="Union">
<path d="M4.97423e-10 16C-9.53177e-07 2 0 0 14 0C28 0 28 2 28 16C28 30 28 32 14 32C0 32 9.54172e-07 30 4.97423e-10 16ZM6 8C6 9.10457 6.89543 10 8 10H20C21.1046 10 22 9.10457 22 8C22 6.89543 21.1046 6 20 6H8C6.89543 6 6 6.89543 6 8ZM6 16C6 17.1046 6.89543 18 8 18H20C21.1046 18 22 17.1046 22 16C22 14.8954 21.1046 14 20 14H8C6.89543 14 6 14.8954 6 16ZM6 24C6 25.1046 6.89543 26 8 26H14C15.1046 26 16 25.1046 16 24C16 22.8954 15.1046 22 14 22H8C6.89543 22 6 22.8954 6 24Z" fill="var(--fill-0, #001A34)" fill-opacity="1"/>
<path d="M36 16C36 24.4937 36 27.9395 32 29.2541C29.6799 30 28.686 30 29.3896 27.0002C29.5673 26.2425 29.6864 25.4418 29.771 24.6081C30 22.3508 30 19.5173 30 16.1046V15.8953C30 12.4825 30 9.64921 29.771 7.39188C29.6864 6.55822 29.5673 5.7575 29.3896 4.99985C28.686 2.00008 29.771 1.99976 32 2.74592C36 4.06051 36 7.5063 36 16Z" fill="var(--fill-0, #001A34)" fill-opacity="1"/>
</g>
</svg>
