<svg width="24" height="24" viewBox="0 0 24 24" fill="none" xmlns="http://www.w3.org/2000/svg">
<path d="M16 15C15 15 15 11.7208 15 10.9999C15 10.9999 13.1716 10.9999 12 10.9999C11 10.9999 11 10.9999 11 9.99995V8.99995C11 7.4999 11.5 6.99995 13 6.99995H15C15 6.2772 15 3 16 3C17.5 3 22 7.4999 22 8.99995C22 10.5 17.5 15 16 15Z" fill="#005BFF"/>
<path d="M9 13.0001C9 13.0001 10.8284 13 12 13C13 13 13 13 13 14.0001V15.0001C13 16.5001 12.5 17.0001 11 17.0001H9C9 17.7228 9 21 8 21C6.5 21 2.00004 16.5001 2 15C1.99996 13.4999 6.5 9 8 9C9 9 9 12.2792 9 13.0001Z" fill="#005BFF"/>
</svg>
