<svg preserveAspectRatio="none" width="100%" height="100%" overflow="visible" style="display: block;" viewBox="0 0 20 18" fill="none" xmlns="http://www.w3.org/2000/svg">
<g id="Union">
<path d="M14 12C13 12 13 8.72076 13 7.99995C13 7.99995 11.1716 7.99995 10 7.99995C9 7.99995 9 7.99995 9 6.99995V5.99995C9 4.4999 9.5 3.99995 11 3.99995H13C13 3.2772 13 0 14 0C15.5 0 20 4.4999 20 5.99995C20 7.5 15.5 12 14 12Z" fill="var(--fill-0, #005BFF)"/>
<path d="M7 10.0001C7 10.0001 8.82843 10 10 10C11 10 11 10 11 11.0001V12.0001C11 13.5001 10.5 14.0001 9 14.0001H7C7 14.7228 7 18 6 18C4.5 18 3.63011e-05 13.5001 2.19617e-10 12C-3.63002e-05 10.4999 4.5 6 6 6C7 6 7 9.27924 7 10.0001Z" fill="var(--fill-0, #005BFF)"/>
</g>
</svg>
