<svg preserveAspectRatio="none" width="100%" height="100%" overflow="visible" style="display: block;" viewBox="0 0 16.0005 16" fill="none" xmlns="http://www.w3.org/2000/svg">
<path id="Union" d="M6.00026 12.5C6.00008 10.9966 6.00026 9.99801 8.00013 10.006C10 10.0139 10.0007 10.9966 10.0003 12.5L9.99982 14.0023C10.0003 15 9.99982 15.4147 10.2927 15.7074C10.5856 16 11.0003 16 12.0003 16C14.0003 16 14.9997 16 15.4997 15.5004C15.9997 15.0008 16.0002 13.326 16.0002 10.5C16.0002 9.50083 16.0224 7.00768 15.6423 6.17063C15.2835 5.38068 14.4006 4.23005 12.9998 3.0111C11.2784 1.51312 8.95113 0 8.00013 0C7.04913 0 4.72164 1.51312 3.0002 3.0111C1.59941 4.23005 0.716476 5.38068 0.357721 6.17063C-0.0224475 7.00768 0.000258534 9.50083 0.000258534 10.5C0.000258534 13.326 0.000258565 15.0008 0.500277 15.5004C1.00027 16 2.00026 16 4.00026 16C5.00026 16 5.4144 16 5.70729 15.7074C6.00018 15.4147 6.00026 15 6.00018 14.0023L6.00026 12.5Z" fill="var(--fill-0, #001A34)" fill-opacity="0.4"/>
</svg>
