<svg preserveAspectRatio="none" width="100%" height="100%" overflow="visible" style="display: block;" viewBox="0 0 155.846 24" fill="none" xmlns="http://www.w3.org/2000/svg">
<path id="logo" d="M17.8867 15.3708C17.8867 20.477 14.1039 24 8.94337 24C3.78059 24 0 20.477 0 15.3708C0 10.2646 3.78286 6.74162 8.94337 6.74162C14.1061 6.74162 17.8867 10.2646 17.8867 15.3708ZM52.7417 15.3708C52.7417 20.477 48.9589 24 43.7984 24C38.6379 24 34.855 20.477 34.855 15.3708C34.855 10.2646 38.6379 6.74162 43.7984 6.74162C48.9589 6.74162 52.7417 10.2646 52.7417 15.3708ZM70.9376 13.481V23.439H66.5933V14.4009C66.5933 11.7978 65.3657 10.7234 63.2719 10.7234C61.0736 10.7234 59.489 11.9478 59.489 15.473V23.439H55.1447V7.25042H59.439V9.7013H59.5413C60.6144 7.86371 62.4558 6.73935 64.8064 6.73935C68.3301 6.74162 70.9376 8.68143 70.9376 13.481ZM136.425 7.25042V23.439H132.081V16.9018H125.129V23.439H120.784V7.25042H125.129V13.1221H132.081V7.25042H136.425ZM112.762 7.25042V9.59909H112.659C111.893 7.96593 109.847 6.73935 107.242 6.73935C103 6.73935 99.5239 9.80352 99.5239 15.3186C99.5239 20.8859 102.898 24 107.242 24C109.899 24 111.791 22.7734 112.659 21.2425H112.762V23.439H117.106V7.25042H112.762ZM89.7644 7.09824C87.1068 7.09824 85.0631 8.32482 83.9901 10.2646H83.8878C84.0401 6.68938 85.2677 5.15843 89.4575 4.74957L95.9479 4.13628V0L88.7414 0.561045C81.6895 1.12209 79.5934 5.9239 79.5934 13.5832C79.5934 20.3748 83.5286 24 88.6391 24C93.6996 24 97.5824 20.3748 97.5824 15.3186C97.5824 10.2646 94.0565 7.09824 89.7644 7.09824ZM19.4713 7.25042V10.9279H28.0054L19.2666 19.9659V23.439H33.782V19.7615H24.634L33.3728 10.6712V7.25042H19.4713ZM108.367 20.0681C105.76 20.0681 104.075 18.1283 104.075 15.4208C104.075 12.6633 105.762 10.6712 108.367 10.6712C110.972 10.6712 112.762 12.611 112.762 15.3685C112.762 18.0761 110.972 20.0681 108.367 20.0681ZM4.54898 15.3708C4.54898 18.1783 6.28582 20.0182 8.94337 20.0182C11.6009 20.0182 13.3378 18.1806 13.3378 15.3708C13.3378 12.561 11.6009 10.7234 8.94337 10.7234C6.28582 10.7234 4.54898 12.561 4.54898 15.3708ZM39.404 15.3708C39.404 18.1783 41.1408 20.0182 43.7984 20.0182C46.4559 20.0182 48.1927 18.1806 48.1927 15.3708C48.1927 12.561 46.4559 10.7234 43.7984 10.7234C41.1408 10.7234 39.404 12.561 39.404 15.3708ZM88.5868 20.0681C86.0838 20.0681 84.1401 18.1783 84.1401 15.3708C84.1401 12.5111 86.0816 10.8257 88.5868 10.8257C91.092 10.8257 93.0335 12.5111 93.0335 15.3708C93.0335 18.1783 91.092 20.0681 88.5868 20.0681ZM150.326 23.439L144.45 15.6775V23.439H140.105V7.25042H144.45V13.9398L149.867 7.25042H155.235L148.59 14.6031L155.846 23.4367H150.326V23.439Z" fill="var(--fill-0, #005BFF)"/>
</svg>
