<svg width="43" height="12" viewBox="0 0 43 12" fill="none" xmlns="http://www.w3.org/2000/svg">
<g id="Mir" clip-path="url(#clip0_0_1)">
<path id="mir" d="M3.94922 0C3.96805 0.000119267 5.09493 0.0143037 5.7041 1.71387C7.28369 6.25672 7.45898 6.85742 7.45898 6.85742C7.45898 6.85742 7.80978 5.74244 9.21387 1.71387C9.82817 -0.000180559 10.9697 0 10.9697 0H14.918V12H10.9697V5.57129H10.5303L8.33691 12H6.58203L4.3877 5.57129H3.94922V12H0V0H3.94922ZM20.6221 6.85742H21.0615C21.0615 6.85742 22.1145 4.80021 24.1328 0.857422C24.5716 0.0859933 25.4492 0 25.4492 0H28.959V12H25.0098V5.14258H24.5713C24.5713 5.14258 23.8693 6.51423 21.5 11.1426C21.0631 11.9961 20.191 12 20.1836 12H16.6738V0H20.6221V6.85742ZM42.6904 5.53809C42.1639 7.25237 40.496 8.53809 38.5654 8.53809H35.0557V11.9668H31.1064V5.53809H42.6904ZM38.3418 0C40.8498 0 42.8203 1.88613 42.8203 4.28613C42.8203 4.54312 42.8208 4.88561 42.7314 5.14258H36.1025C33.1469 5.14234 30.4606 2.65698 30.0127 0H38.3418Z" fill="white"/>
</g>
<defs>
<clipPath id="clip0_0_1">
<rect width="43" height="12" fill="white"/>
</clipPath>
</defs>
</svg>
