<svg width="100%" height="100%" overflow="visible" style="display: block;" viewBox="0 0 18 18" fill="none" xmlns="http://www.w3.org/2000/svg">
<path id="Union" d="M0 9C0 1.5885 1.5885 0 9 0C16.4115 0 18 1.5885 18 9C18 16.4115 16.4115 18 9 18C1.5885 18 0 16.4115 0 9ZM5.5 3C5.22386 3 5 3.22386 5 3.5V5H3.5C3.22386 5 3 5.22386 3 5.5C3 5.77614 3.22386 6 3.5 6H5V7.5C5 7.77614 5.22386 8 5.5 8C5.77614 8 6 7.77614 6 7.5V6H7.5C7.77614 6 8 5.77614 8 5.5C8 5.22386 7.77614 5 7.5 5H6V3.5C6 3.22386 5.77614 3 5.5 3ZM10.5 5C10.2239 5 10 5.22386 10 5.5C10 5.77614 10.2239 6 10.5 6H14.5C14.7761 6 15 5.77614 15 5.5C15 5.22386 14.7761 5 14.5 5H10.5ZM10 11.5C10 11.7761 10.2239 12 10.5 12H14.5C14.7761 12 15 11.7761 15 11.5C15 11.2239 14.7761 11 14.5 11H10.5C10.2239 11 10 11.2239 10 11.5ZM10 13.5C10 13.7761 10.2239 14 10.5 14H14.5C14.7761 14 15 13.7761 15 13.5C15 13.2239 14.7761 13 14.5 13H10.5C10.2239 13 10 13.2239 10 13.5ZM7.35355 11.3536C7.54881 11.1584 7.54881 10.8418 7.35355 10.6465C7.15829 10.4513 6.8417 10.4513 6.64644 10.6465L5.5 11.793L4.35356 10.6465C4.1583 10.4513 3.84171 10.4513 3.64645 10.6465C3.45119 10.8418 3.45119 11.1584 3.64645 11.3536L4.79289 12.5001L3.64644 13.6465C3.45118 13.8418 3.45118 14.1584 3.64644 14.3536C3.84171 14.5489 4.15829 14.5489 4.35355 14.3536L5.5 13.2072L6.64644 14.3536C6.8417 14.5489 7.15829 14.5489 7.35355 14.3536C7.54881 14.1584 7.54881 13.8418 7.35355 13.6465L6.2071 12.5001L7.35355 11.3536Z" fill="var(--fill-0, #001A34)" fill-opacity="1"/>
</svg>
