<svg width="100%" height="100%" overflow="visible" style="display: block;" viewBox="0 0 19 19" fill="none" xmlns="http://www.w3.org/2000/svg">
<g id="Union">
<path d="M9.00003 19C1.12503 19 2.6989e-05 18.2727 2.67029e-05 15L0 13C3.85342e-05 12.4632 6.68913e-05 12.0704 0.174103 11.7831C0.648485 11 2.41572 11 9.00003 11C18 11 18 11 18 13L18 15C18 18.2727 16.875 19 9.00003 19Z" fill="var(--fill-0, #005BFF)"/>
<path d="M5.34058e-05 5C5.34058e-05 1.72727 1.12505 0.999997 9.00005 0.999998C9.722 0.999998 10.3872 1.00611 11 1.01974C12.0001 1.01974 12.0001 1.60938 12.0001 3C12.0001 5.20914 13.7909 7 16.0001 7C16.1694 7 16.3362 6.98948 16.5 6.96905C17.1328 6.89015 18.2048 7.06639 17.921 8C17.617 9 16.1433 9 9.00005 9C2.41574 9 0.648512 9 0.174129 8.21686C9.35495e-05 7.92955 6.52801e-05 7.53684 2.67029e-05 7.00005L5.34058e-05 5Z" fill="var(--fill-0, #005BFF)"/>
<path d="M14 2C13.4477 2 13 2.44771 13 3C13 3.55228 13.4477 4 14 4H15V5C15 5.55228 15.4477 6 16 6C16.5523 6 17 5.55228 17 5V4H18C18.5523 4 19 3.55228 19 3C19 2.44771 18.5523 2 18 2L17 2V1C17 0.447714 16.5523 -2.41411e-08 16 0C15.4477 2.41411e-08 15 0.447714 15 1V2H14Z" fill="var(--fill-0, #005BFF)"/>
</g>
</svg>
