<svg width="24" height="24" viewBox="0 0 24 24" fill="none" xmlns="http://www.w3.org/2000/svg">
<path d="M12 7C10.2314 7 8.67607 7.91711 7.78508 9.30878C7.3384 10.0065 6.41071 10.21 5.71302 9.76328C5.01533 9.3166 4.81185 8.3889 5.25853 7.69122C6.67768 5.47458 9.16614 4 12 4C14.3494 4 16.4605 5.01268 17.9231 6.62288L18.0448 6.13619C18.2457 5.33249 19.0601 4.84385 19.8638 5.04477C20.6675 5.2457 21.1561 6.0601 20.9552 6.86379L19.9552 10.8638C19.7883 11.5315 19.1883 12 18.5 12H14.5C13.6716 12 13 11.3284 13 10.5C13 9.67156 13.6716 8.99999 14.5 8.99999H16.0007C15.0874 7.78407 13.6342 7 12 7Z" fill="#005BFF"/>
<path d="M7.99929 15H9.49999C10.3284 15 11 14.3284 11 13.5C11 12.6716 10.3284 12 9.49999 12H5.49999C4.81169 12 4.21171 12.4685 4.04478 13.1362L3.04478 17.1362C2.84385 17.9399 3.33249 18.7543 4.13619 18.9552C4.93988 19.1561 5.75428 18.6675 5.9552 17.8638L6.07687 17.3771C7.53942 18.9873 9.65062 20 12 20C14.8338 20 17.3223 18.5254 18.7414 16.3088C19.1881 15.6111 18.9846 14.6834 18.287 14.2367C17.5893 13.79 16.6616 13.9935 16.2149 14.6912C15.3239 16.0829 13.7686 17 12 17C10.3658 17 8.91262 16.216 7.99929 15Z" fill="#005BFF"/>
</svg>
