<svg preserveAspectRatio="none" width="100%" height="100%" overflow="visible" style="display: block;" viewBox="0 0 18 18" fill="none" xmlns="http://www.w3.org/2000/svg">
<g id="Union">
<path d="M11 8H9V6H11C11.5523 6 12 6.44772 12 7C12 7.55228 11.5523 8 11 8Z" fill="var(--fill-0, #001A34)" fill-opacity="0.4"/>
<path d="M9 18C14.5842 18 18 14.5842 18 9C18 3.4158 14.5842 0 9 0C3.4158 0 0 3.4158 0 9C0 14.5842 3.4158 18 9 18ZM8 4H11C12.6569 4 14 5.34315 14 7C14 8.65685 12.6569 10 11 10H9V11H12C12.5523 11 13 11.4477 13 12C13 12.5523 12.5523 13 12 13H9V14C9 14.5523 8.55228 15 8 15C7.44772 15 7 14.5523 7 14V13H6C5.44771 13 5 12.5523 5 12C5 11.4477 5.44771 11 6 11H7V10H6C5.44771 10 5 9.55228 5 9C5 8.44772 5.44771 8 6 8H7V5C7 4.44772 7.44772 4 8 4Z" fill="var(--fill-0, #001A34)" fill-opacity="0.4"/>
</g>
</svg>
