<svg width="24" height="24" viewBox="0 0 24 24" fill="none" xmlns="http://www.w3.org/2000/svg">
<path d="M14 11H12V9H14C14.5523 9 15 9.44772 15 10C15 10.5523 14.5523 11 14 11Z" fill="#005BFF"/>
<path d="M12 21C17.5842 21 21 17.5842 21 12C21 6.4158 17.5842 3 12 3C6.4158 3 3 6.4158 3 12C3 17.5842 6.4158 21 12 21ZM11 7H14C15.6569 7 17 8.34315 17 10C17 11.6569 15.6569 13 14 13H12V14H15C15.5523 14 16 14.4477 16 15C16 15.5523 15.5523 16 15 16H12V17C12 17.5523 11.5523 18 11 18C10.4477 18 10 17.5523 10 17V16H9C8.44771 16 8 15.5523 8 15C8 14.4477 8.44771 14 9 14H10V13H9C8.44771 13 8 12.5523 8 12C8 11.4477 8.44771 11 9 11H10V8C10 7.44772 10.4477 7 11 7Z" fill="#005BFF"/>
</svg>
