<svg preserveAspectRatio="none" width="100%" height="100%" overflow="visible" style="display: block;" viewBox="0 0 24 24" fill="none" xmlns="http://www.w3.org/2000/svg">
<g id="&#208;&#151;&#208;&#178;&#208;&#181;&#208;&#183;&#208;&#180;&#208;&#190;&#209;&#135;&#208;&#186;&#208;&#184;">
<g id="Union">
<path d="M10.6969 6.22826C10.9156 6.28854 11 6.31182 11 6.5C11 6.68818 10.9156 6.71146 10.6969 6.77174C7.70643 7.59618 7.58319 7.77551 6.77174 10.6969C6.71146 10.9156 6.68818 11 6.5 11C6.31182 11 6.28854 10.9156 6.22826 10.6969C5.43807 7.85205 5.15238 7.55717 2.30309 6.77174C2.08442 6.71146 2 6.68818 2 6.5C2 6.31182 2.08442 6.28854 2.30308 6.22826C5.15237 5.44275 5.43805 5.148 6.22826 2.30309C6.28854 2.08442 6.31182 2 6.5 2C6.68818 2 6.71146 2.08442 6.77174 2.30308C7.58319 5.22448 7.70643 5.40384 10.6969 6.22826Z" fill="var(--fill-0, #001A34)" fill-opacity="0.4"/>
<path d="M21.4612 13.5169C21.8499 13.6241 22 13.6655 22 14C22 14.3345 21.8499 14.3759 21.4612 14.4831C16.1448 15.9488 15.9257 16.2676 14.4831 21.4612C14.3759 21.8499 14.3345 22 14 22C13.6655 22 13.6241 21.8499 13.5169 21.4612C12.1121 16.4036 11.6042 15.8794 6.53882 14.4831C6.15009 14.3759 6 14.3345 6 14C6 13.6655 6.15009 13.6241 6.53882 13.5169C11.6042 12.1205 12.1121 11.5964 13.5169 6.53882C13.6241 6.15009 13.6655 6 14 6C14.3345 6 14.3759 6.15009 14.4831 6.53882C15.9257 11.7324 16.1448 12.0513 21.4612 13.5169Z" fill="var(--fill-0, #001A34)" fill-opacity="0.4"/>
<path d="M22 7.5C22 7.39545 21.9531 7.38252 21.8316 7.34903C20.1702 6.89102 20.1018 6.79138 19.651 5.16838C19.6175 5.0469 19.6045 5 19.5 5C19.3955 5 19.3825 5.0469 19.349 5.16838C18.91 6.74889 18.7513 6.91264 17.1684 7.34903C17.0469 7.38252 17 7.39545 17 7.5C17 7.60455 17.0469 7.61748 17.1684 7.65097C18.7513 8.08732 18.91 8.25114 19.349 9.83162C19.3825 9.9531 19.3955 10 19.5 10C19.6045 10 19.6175 9.9531 19.651 9.83162C20.1018 8.20862 20.1702 8.10899 21.8316 7.65097C21.9531 7.61748 22 7.60455 22 7.5Z" fill="var(--fill-0, #001A34)" fill-opacity="0.4"/>
</g>
</g>
</svg>
