<svg width="24" height="24" viewBox="0 0 24 24" fill="none" xmlns="http://www.w3.org/2000/svg">
<path d="M12.3365 4.52925H11.6635C11.374 4.52925 11.2293 4.52925 11.1137 4.46046C11.0845 4.44308 11.0571 4.4227 11.0319 4.39961C10.9322 4.30822 10.8864 4.16649 10.7948 3.88303C10.671 3.49953 10.6091 3.30777 10.6652 3.14204C10.6792 3.10074 10.6982 3.06144 10.7218 3.02511C10.8166 2.87934 11.0024 2.81542 11.3739 2.68759L11.6849 2.5806C11.8411 2.52687 11.9192 2.5 12 2.5C12.0809 2.5 12.159 2.52687 12.3151 2.5806L12.6261 2.68759C12.9976 2.81542 13.1834 2.87934 13.2782 3.02511C13.3018 3.06144 13.3209 3.10074 13.3349 3.14204C13.391 3.30777 13.329 3.49953 13.2052 3.88303C13.1136 4.16649 13.0679 4.30822 12.9681 4.39961C12.9429 4.4227 12.9155 4.44308 12.8863 4.46046C12.7708 4.52925 12.626 4.52925 12.3365 4.52925Z" fill="#5B51DE"/>
<path d="M10.007 9.1576C10.007 7.41688 9.66799 6.94929 9.66799 6.94929C9.49934 6.80086 8.83506 6.69044 8.4014 6.63237C8.01513 6.58065 8.02118 6.50961 8.13773 6.2431C8.33461 5.79285 8.7901 5.05928 9.66799 5.05928C11.6419 5.05929 12 8.64333 12 11.2147C12 8.64333 12.3581 5.05929 14.332 5.05928C15.2099 5.05928 15.6654 5.79285 15.8623 6.2431C15.9788 6.50961 15.9849 6.58065 15.5986 6.63237C15.1649 6.69044 14.5007 6.80086 14.332 6.94929C14.332 6.94929 13.993 7.41688 13.993 9.1576C13.993 10.2898 14.332 11.5 15 11.5C16 11.5 16.4354 10.6975 16.1372 9.55649C15.7209 7.96411 16.2338 7.61831 17.7908 6.55239L19.4444 5.42034C19.9467 5.0765 20.1236 5.15798 20.5875 5.87538C21.1843 6.79819 22 8.46783 22 10.7004C22 15.2576 19.1019 17.1056 17.3736 17.3771C17.0407 17.4294 17.0368 17.4945 17.272 17.6975C17.6551 18.0282 18.0857 18.3978 18.4088 18.6749C18.7684 18.9832 19.041 19.2831 18.7107 19.6673C18.6005 19.7954 18.4527 19.8737 18.2901 19.8737C17.3511 19.8737 16.7645 19.207 16.2262 18.5951C16.0157 18.3559 15.8125 18.125 15.5986 17.9456C14.7066 17.1977 12.9693 17.9048 15.3281 19.5408C15.908 19.943 16.0293 20.1388 15.4877 20.5876C14.9731 21.0141 13.9573 21.5 12 21.5C10.0427 21.5 9.02688 21.0141 8.51231 20.5876C7.97066 20.1388 8.09203 19.943 8.67185 19.5408C11.0307 17.9048 9.29339 17.1977 8.4014 17.9456C8.18745 18.125 7.98433 18.3559 7.77383 18.5951C7.23545 19.207 6.64889 19.8737 5.7099 19.8737C5.54732 19.8737 5.39953 19.7954 5.28934 19.6673C4.95897 19.2831 5.23161 18.9832 5.59122 18.6749C5.91434 18.3978 6.34486 18.0282 6.72796 17.6975C6.96323 17.4945 6.9593 17.4294 6.62644 17.3771C4.89809 17.1056 2 15.2576 2 10.7004C2 8.46783 2.8157 6.79819 3.41249 5.87538C3.87645 5.15798 4.05331 5.0765 4.55555 5.42034L6.2092 6.55239C7.76623 7.6183 8.25217 8.06715 7.86284 9.55648C7.56456 10.6975 8 11.5 9 11.5C9.66799 11.5 10.007 10.8983 10.007 9.1576ZM10.007 15.3289C10.007 16.3632 10.0267 16.3732 10.8164 16.7759C10.8745 16.8055 10.9368 16.8372 11.0035 16.8717C11.9941 17.3829 12.0059 17.3829 12.9965 16.8717C13.0632 16.8372 13.1255 16.8055 13.1836 16.7759C13.9733 16.3732 13.993 16.3632 13.993 15.3289V14.3004C13.993 13.7452 14.0128 13.4881 13.8981 13.3697C13.7834 13.2514 13.5343 13.2718 12.9965 13.2718H11.0035C10.4657 13.2718 10.2165 13.2514 10.1019 13.3697C9.98723 13.4881 10.007 13.7452 10.007 14.3004V15.3289Z" fill="#5B51DE"/>
</svg>
