<svg preserveAspectRatio="none" width="100%" height="100%" overflow="visible" style="display: block;" viewBox="0 0 20 19" fill="none" xmlns="http://www.w3.org/2000/svg">
<g id="Union">
<path d="M10.3365 2.02925H9.66348C9.374 2.02925 9.22925 2.02925 9.11371 1.96046C9.08452 1.94308 9.05712 1.9227 9.03192 1.89961C8.93215 1.80822 8.88638 1.66649 8.79484 1.38303C8.67099 0.999526 8.60906 0.807775 8.66517 0.642044C8.67916 0.600738 8.69819 0.561443 8.72182 0.525112C8.8166 0.37934 9.00238 0.315423 9.37393 0.187588L9.6849 0.0805989C9.84107 0.0268663 9.91916 0 10 0C10.0809 0 10.159 0.0268663 10.3151 0.080599L10.6261 0.187588C10.9976 0.315423 11.1834 0.37934 11.2782 0.525112C11.3018 0.561443 11.3209 0.600738 11.3349 0.642044C11.391 0.807775 11.329 0.999527 11.2052 1.38303C11.1136 1.66649 11.0679 1.80822 10.9681 1.89961C10.9429 1.9227 10.9155 1.94308 10.8863 1.96046C10.7708 2.02925 10.626 2.02925 10.3365 2.02925Z" fill="var(--fill-0, #5B51DE)"/>
<path d="M8.00704 6.6576C8.00704 4.91688 7.66799 4.44929 7.66799 4.44929C7.49934 4.30086 6.83506 4.19044 6.4014 4.13237C6.01513 4.08065 6.02118 4.00961 6.13773 3.7431C6.33461 3.29285 6.7901 2.55928 7.66799 2.55928C9.64189 2.55929 10 6.14333 10 8.71466C10 6.14333 10.3581 2.55929 12.332 2.55928C13.2099 2.55928 13.6654 3.29285 13.8623 3.7431C13.9788 4.00961 13.9849 4.08065 13.5986 4.13237C13.1649 4.19044 12.5007 4.30086 12.332 4.44929C12.332 4.44929 11.993 4.91688 11.993 6.6576C11.993 7.78984 12.332 9 13 9C14 9 14.4354 8.19753 14.1372 7.05649C13.7209 5.46411 14.2338 5.11831 15.7908 4.05239L17.4444 2.92034C17.9467 2.5765 18.1236 2.65798 18.5875 3.37538C19.1843 4.29819 20 5.96783 20 8.20039C20 12.7576 17.1019 14.6056 15.3736 14.8771C15.0407 14.9294 15.0368 14.9945 15.272 15.1975C15.6551 15.5282 16.0857 15.8978 16.4088 16.1749C16.7684 16.4832 17.041 16.7831 16.7107 17.1673C16.6005 17.2954 16.4527 17.3737 16.2901 17.3737C15.3511 17.3737 14.7645 16.707 14.2262 16.0951C14.0157 15.8559 13.8125 15.625 13.5986 15.4456C12.7066 14.6977 10.9693 15.4048 13.3281 17.0408C13.908 17.443 14.0293 17.6388 13.4877 18.0876C12.9731 18.5141 11.9573 19 10 19C8.04266 19 7.02688 18.5141 6.51231 18.0876C5.97066 17.6388 6.09203 17.443 6.67185 17.0408C9.0307 15.4048 7.29339 14.6977 6.4014 15.4456C6.18745 15.625 5.98433 15.8559 5.77383 16.0951C5.23545 16.707 4.64889 17.3737 3.7099 17.3737C3.54732 17.3737 3.39953 17.2954 3.28934 17.1673C2.95897 16.7831 3.23161 16.4832 3.59122 16.1749C3.91434 15.8978 4.34486 15.5282 4.72796 15.1975C4.96323 14.9945 4.9593 14.9294 4.62644 14.8771C2.89809 14.6056 0 12.7576 0 8.20039C0 5.96783 0.815697 4.29819 1.41249 3.37538C1.87645 2.65798 2.05331 2.5765 2.55555 2.92034L4.2092 4.05239C5.76623 5.1183 6.25217 5.56715 5.86284 7.05648C5.56456 8.19752 6 9 7 9C7.66799 9 8.00704 8.39832 8.00704 6.6576ZM8.00704 12.8289C8.00704 13.8632 8.02666 13.8732 8.81643 14.2759C8.87452 14.3055 8.93679 14.3372 9.00352 14.3717C9.99407 14.8829 10.0059 14.8829 10.9965 14.3717C11.0632 14.3372 11.1255 14.3055 11.1836 14.2759C11.9733 13.8732 11.993 13.8632 11.993 12.8289V11.8004C11.993 11.2452 12.0128 10.9881 11.8981 10.8697C11.7834 10.7514 11.5343 10.7718 10.9965 10.7718H9.00352C8.46567 10.7718 8.21655 10.7514 8.10189 10.8697C7.98723 10.9881 8.00704 11.2452 8.00704 11.8004V12.8289Z" fill="var(--fill-0, #5B51DE)"/>
</g>
</svg>
